<svg width="480" height="600" viewBox="0 0 480 600" fill="none" xmlns="http://www.w3.org/2000/svg">
<g clip-path="url(#clip0_616_315)">
<rect width="480" height="600" transform="matrix(-1 0 0 1 480 0)" fill="#4285F4"/>
<path d="M89.1002 308.59C-35.3998 133.09 54.4351 -204.312 -394.565 -261.313C-843.565 -318.313 -770 -233.409 -770 -233.409L-781 296.091V821.092C-781 821.092 343.6 1022.22 411.1 783.219C478.6 544.219 213.6 484.09 89.1002 308.59Z" fill="#FFB60D"/>
<path d="M28.1002 362.59C-96.3998 187.09 -6.56494 -150.313 -455.565 -207.313C-904.565 -264.313 -831 -179.409 -831 -179.409L-842 350.091V939C-842 939 282.6 1076.22 350.1 837.219C417.6 598.219 152.6 538.09 28.1002 362.59Z" fill="#FFC338"/>
<path d="M-53.8998 441.59C-178.4 266.09 -88.5649 -71.3125 -537.565 -128.313C-986.565 -185.313 -913 -100.409 -913 -100.409L-924 429.091V1018C-924 1018 200.6 1155.22 268.1 916.219C335.6 677.219 70.6002 617.09 -53.8998 441.59Z" fill="#FFCF61"/>
</g>
<defs>
<clipPath id="clip0_616_315">
<rect width="480" height="600" fill="white" transform="matrix(-1 0 0 1 480 0)"/>
</clipPath>
</defs>
</svg>
