<svg width="480" height="600" viewBox="0 0 480 600" fill="none" xmlns="http://www.w3.org/2000/svg">
<g clip-path="url(#clip0_616_315)">
<path d="M480 0H7.00001C3.13401 0 0 3.13401 0 7V593C0 596.866 3.13401 600 7 600H480V0Z" fill="#4285F4"/>
<path d="M85.1002 256.59C-39.3998 81.0899 50.4351 -256.312 -398.565 -313.313C-847.565 -370.313 -774 -285.409 -774 -285.409L-785 244.091V769.092C-785 769.092 339.6 970.219 407.1 731.219C474.6 492.219 209.6 432.09 85.1002 256.59Z" fill="#FFB60D"/>
<path d="M24.1002 310.59C-100.4 135.09 -10.5649 -202.313 -459.565 -259.313C-908.565 -316.313 -835 -231.409 -835 -231.409L-846 298.091V887C-846 887 278.6 1024.22 346.1 785.219C413.6 546.219 148.6 486.09 24.1002 310.59Z" fill="#FFC338"/>
<path d="M-57.8998 389.59C-182.4 214.09 -92.5649 -123.313 -541.565 -180.313C-990.565 -237.313 -917 -152.409 -917 -152.409L-928 377.091V966C-928 966 196.6 1103.22 264.1 864.219C331.6 625.219 66.6002 565.09 -57.8998 389.59Z" fill="#FFCF61"/>
</g>
<defs>
<clipPath id="clip0_616_315">
<path d="M480 0H7.00001C3.13401 0 0 3.13401 0 7V593C0 596.866 3.13401 600 7 600H480V0Z" fill="white"/>
</clipPath>
</defs>
</svg>
